<svg xmlns="http://www.w3.org/2000/svg" viewBox="0 0 100 100">
  <defs>
    <linearGradient id="sunsetGrad" x1="0%" y1="0%" x2="0%" y2="100%">
      <stop offset="0%" style="stop-color:#f19132"/>
      <stop offset="100%" style="stop-color:#b84309"/>
    </linearGradient>
    <linearGradient id="desertGrad" x1="0%" y1="0%" x2="0%" y2="100%">
      <stop offset="0%" style="stop-color:#72543d"/>
      <stop offset="100%" style="stop-color:#32241a"/>
    </linearGradient>
  </defs>
  
  <!-- Background circle -->
  <circle cx="50" cy="50" r="48" fill="url(#desertGrad)"/>
  
  <!-- Border ring -->
  <circle cx="50" cy="50" r="46" fill="none" stroke="#d4c4a8" stroke-width="2"/>
  
  <!-- Stars (moon/sleep theme) -->
  <circle cx="30" cy="25" r="2" fill="#fef9c3"/>
  <circle cx="70" cy="20" r="1.5" fill="#fef9c3"/>
  <circle cx="75" cy="35" r="1" fill="#fef9c3"/>
  
  <!-- Moon (crescent) -->
  <path d="M 55 15 Q 45 20 45 35 Q 45 50 60 50 Q 45 55 40 40 Q 35 25 55 15" fill="#fef9c3"/>
  
  <!-- Cactus silhouette -->
  <path d="M 25 75 L 25 55 L 25 75 M 20 60 L 25 55 M 30 58 L 25 52" stroke="#1a1206" stroke-width="4" stroke-linecap="round" fill="none"/>
  
  <!-- Baby in blanket (stylized) -->
  <ellipse cx="60" cy="68" rx="20" ry="14" fill="#c47242"/>
  <circle cx="60" cy="60" r="10" fill="#ebcfb8"/>
  <circle cx="57" cy="58" r="1.5" fill="#32241a"/>
  <circle cx="63" cy="58" r="1.5" fill="#32241a"/>
  <path d="M 58 62 Q 60 64 62 62" stroke="#32241a" stroke-width="1" fill="none" stroke-linecap="round"/>
  
  <!-- Z's for sleep -->
  <text x="78" y="55" font-family="Georgia, serif" font-size="10" fill="#fef9c3" font-weight="bold">z</text>
  <text x="82" y="48" font-family="Georgia, serif" font-size="8" fill="#fef9c3" font-weight="bold">z</text>
</svg>
